<svg width="399" height="368" xmlns="http://www.w3.org/2000/svg" xmlns:xlink="http://www.w3.org/1999/xlink" xml:space="preserve" overflow="hidden"><g transform="translate(-3737 -908)"><path d="M3739.5 971C3739.5 937.587 3827.7 910.5 3936.5 910.5 4045.3 910.5 4133.5 937.587 4133.5 971L4133.5 1213C4133.5 1246.41 4045.3 1273.5 3936.5 1273.5 3827.7 1273.5 3739.5 1246.41 3739.5 1213Z" fill="#FFF2CC" fill-rule="evenodd"/><path d="M4133.5 971C4133.5 1004.41 4045.3 1031.5 3936.5 1031.5 3827.7 1031.5 3739.5 1004.41 3739.5 971" stroke="#172C51" stroke-width="4.58333" stroke-miterlimit="8" fill="none" fill-rule="evenodd"/><path d="M3739.5 971C3739.5 937.587 3827.7 910.5 3936.5 910.5 4045.3 910.5 4133.5 937.587 4133.5 971L4133.5 1213C4133.5 1246.41 4045.3 1273.5 3936.5 1273.5 3827.7 1273.5 3739.5 1246.41 3739.5 1213Z" stroke="#172C51" stroke-width="4.58333" stroke-miterlimit="8" fill="none" fill-rule="evenodd"/></g></svg>